<mxfile host="app.diagrams.net" modified="2022-08-16T02:19:26.576Z" agent="5.0 (Macintosh; Intel Mac OS X 10_15_7) AppleWebKit/605.1.15 (KHTML, like Gecko) Version/15.3 Safari/605.1.15" etag="8iykDXSlB1Hv0HslY0mN" version="20.2.3" type="github" pages="3">
  <diagram id="Agm2xgovIHT3s1C7NOBa" name="ICMS Nano Architecture">
    <mxGraphModel dx="1167" dy="719" grid="0" gridSize="10" guides="1" tooltips="1" connect="1" arrows="1" fold="1" page="1" pageScale="1" pageWidth="850" pageHeight="1100" math="0" shadow="0">
      <root>
        <mxCell id="0" />
        <mxCell id="1" parent="0" />
        <mxCell id="vgarWTQZDLvpBhs7gpOK-13" value="mikrotik" style="rounded=0;whiteSpace=wrap;html=1;" parent="1" vertex="1">
          <mxGeometry x="323" y="273" width="433" height="277" as="geometry" />
        </mxCell>
        <mxCell id="vgarWTQZDLvpBhs7gpOK-3" style="edgeStyle=orthogonalEdgeStyle;rounded=0;orthogonalLoop=1;jettySize=auto;html=1;" parent="1" source="vgarWTQZDLvpBhs7gpOK-1" target="vgarWTQZDLvpBhs7gpOK-2" edge="1">
          <mxGeometry relative="1" as="geometry" />
        </mxCell>
        <mxCell id="vgarWTQZDLvpBhs7gpOK-1" value="Scheduler" style="ellipse;whiteSpace=wrap;html=1;aspect=fixed;" parent="1" vertex="1">
          <mxGeometry x="384" y="312" width="80" height="80" as="geometry" />
        </mxCell>
        <mxCell id="vgarWTQZDLvpBhs7gpOK-12" style="edgeStyle=orthogonalEdgeStyle;rounded=0;orthogonalLoop=1;jettySize=auto;html=1;" parent="1" source="vgarWTQZDLvpBhs7gpOK-2" target="vgarWTQZDLvpBhs7gpOK-11" edge="1">
          <mxGeometry relative="1" as="geometry" />
        </mxCell>
        <mxCell id="vgarWTQZDLvpBhs7gpOK-2" value="Fetcher" style="rounded=0;whiteSpace=wrap;html=1;" parent="1" vertex="1">
          <mxGeometry x="523" y="322" width="120" height="60" as="geometry" />
        </mxCell>
        <mxCell id="vgarWTQZDLvpBhs7gpOK-9" style="edgeStyle=orthogonalEdgeStyle;rounded=0;orthogonalLoop=1;jettySize=auto;html=1;" parent="1" source="vgarWTQZDLvpBhs7gpOK-4" target="vgarWTQZDLvpBhs7gpOK-2" edge="1">
          <mxGeometry relative="1" as="geometry" />
        </mxCell>
        <mxCell id="vgarWTQZDLvpBhs7gpOK-4" value="internet" style="ellipse;shape=cloud;whiteSpace=wrap;html=1;" parent="1" vertex="1">
          <mxGeometry x="523" y="171" width="120" height="80" as="geometry" />
        </mxCell>
        <mxCell id="vgarWTQZDLvpBhs7gpOK-8" style="edgeStyle=orthogonalEdgeStyle;rounded=0;orthogonalLoop=1;jettySize=auto;html=1;" parent="1" source="vgarWTQZDLvpBhs7gpOK-5" target="vgarWTQZDLvpBhs7gpOK-4" edge="1">
          <mxGeometry relative="1" as="geometry" />
        </mxCell>
        <mxCell id="vgarWTQZDLvpBhs7gpOK-5" value="ICMS Server" style="ellipse;whiteSpace=wrap;html=1;aspect=fixed;" parent="1" vertex="1">
          <mxGeometry x="543" y="52" width="80" height="80" as="geometry" />
        </mxCell>
        <mxCell id="vgarWTQZDLvpBhs7gpOK-7" style="edgeStyle=orthogonalEdgeStyle;rounded=0;orthogonalLoop=1;jettySize=auto;html=1;" parent="1" source="vgarWTQZDLvpBhs7gpOK-6" target="vgarWTQZDLvpBhs7gpOK-5" edge="1">
          <mxGeometry relative="1" as="geometry" />
        </mxCell>
        <mxCell id="vgarWTQZDLvpBhs7gpOK-6" value="Planned Landing Page" style="shape=hexagon;perimeter=hexagonPerimeter2;whiteSpace=wrap;html=1;fixedSize=1;" parent="1" vertex="1">
          <mxGeometry x="369" y="52" width="120" height="80" as="geometry" />
        </mxCell>
        <mxCell id="vgarWTQZDLvpBhs7gpOK-11" value="Stored LP" style="shape=hexagon;perimeter=hexagonPerimeter2;whiteSpace=wrap;html=1;fixedSize=1;" parent="1" vertex="1">
          <mxGeometry x="523" y="445" width="120" height="80" as="geometry" />
        </mxCell>
      </root>
    </mxGraphModel>
  </diagram>
  <diagram id="xTCrFdlDUAOzPUpBn-Sb" name="icms downtime">
    <mxGraphModel dx="1556" dy="959" grid="0" gridSize="10" guides="1" tooltips="1" connect="1" arrows="1" fold="1" page="1" pageScale="1" pageWidth="850" pageHeight="1100" math="0" shadow="0">
      <root>
        <mxCell id="0" />
        <mxCell id="1" parent="0" />
        <mxCell id="xhSqdQ1_Ly-qrsT6m0mN-14" value="Legenda" style="swimlane;fontStyle=0;childLayout=stackLayout;horizontal=1;startSize=30;horizontalStack=0;resizeParent=1;resizeParentMax=0;resizeLast=0;collapsible=1;marginBottom=0;fontSize=14;" vertex="1" parent="1">
          <mxGeometry x="6" y="116" width="140" height="253" as="geometry" />
        </mxCell>
        <mxCell id="xhSqdQ1_Ly-qrsT6m0mN-3" value="Event" style="ellipse;whiteSpace=wrap;html=1;fillColor=#d5e8d4;strokeColor=#82b366;fontSize=13;" vertex="1" parent="xhSqdQ1_Ly-qrsT6m0mN-14">
          <mxGeometry y="30" width="140" height="43" as="geometry" />
        </mxCell>
        <mxCell id="xhSqdQ1_Ly-qrsT6m0mN-4" value="Decision" style="rhombus;whiteSpace=wrap;html=1;fontSize=13;" vertex="1" parent="xhSqdQ1_Ly-qrsT6m0mN-14">
          <mxGeometry y="73" width="140" height="60" as="geometry" />
        </mxCell>
        <mxCell id="xhSqdQ1_Ly-qrsT6m0mN-12" value="biru: tim PDN" style="rounded=0;whiteSpace=wrap;html=1;fontSize=14;fillColor=#dae8fc;strokeColor=#6c8ebf;" vertex="1" parent="xhSqdQ1_Ly-qrsT6m0mN-14">
          <mxGeometry y="133" width="140" height="60" as="geometry" />
        </mxCell>
        <mxCell id="xhSqdQ1_Ly-qrsT6m0mN-11" value="merah: tim Artha" style="rounded=0;whiteSpace=wrap;html=1;fontSize=14;fillColor=#f8cecc;strokeColor=#b85450;" vertex="1" parent="xhSqdQ1_Ly-qrsT6m0mN-14">
          <mxGeometry y="193" width="140" height="60" as="geometry" />
        </mxCell>
        <mxCell id="kEFBA2uL_NgSPJdPskX8-16" style="edgeStyle=orthogonalEdgeStyle;rounded=0;orthogonalLoop=1;jettySize=auto;html=1;fontSize=13;" edge="1" parent="1" source="kEFBA2uL_NgSPJdPskX8-15" target="usRqdg-4SsY06XXPIi0Y-10">
          <mxGeometry relative="1" as="geometry" />
        </mxCell>
        <mxCell id="kEFBA2uL_NgSPJdPskX8-15" value="" style="rounded=0;whiteSpace=wrap;html=1;fontSize=13;fillColor=#f8cecc;strokeColor=#b85450;" vertex="1" parent="1">
          <mxGeometry x="175.5" y="531" width="291" height="161" as="geometry" />
        </mxCell>
        <mxCell id="usRqdg-4SsY06XXPIi0Y-11" style="edgeStyle=orthogonalEdgeStyle;rounded=0;orthogonalLoop=1;jettySize=auto;html=1;fontSize=13;" parent="1" source="usRqdg-4SsY06XXPIi0Y-1" target="kEFBA2uL_NgSPJdPskX8-1" edge="1">
          <mxGeometry relative="1" as="geometry" />
        </mxCell>
        <mxCell id="usRqdg-4SsY06XXPIi0Y-1" value="internal" style="rounded=0;whiteSpace=wrap;html=1;fontSize=13;fillColor=#f8cecc;strokeColor=#b85450;" parent="1" vertex="1">
          <mxGeometry x="261" y="312" width="120" height="60" as="geometry" />
        </mxCell>
        <mxCell id="usRqdg-4SsY06XXPIi0Y-9" style="edgeStyle=orthogonalEdgeStyle;rounded=0;orthogonalLoop=1;jettySize=auto;html=1;fontSize=13;" parent="1" source="usRqdg-4SsY06XXPIi0Y-2" target="usRqdg-4SsY06XXPIi0Y-8" edge="1">
          <mxGeometry relative="1" as="geometry" />
        </mxCell>
        <mxCell id="usRqdg-4SsY06XXPIi0Y-2" value="external" style="rounded=0;whiteSpace=wrap;html=1;fontSize=13;fillColor=#f8cecc;strokeColor=#b85450;" parent="1" vertex="1">
          <mxGeometry x="536" y="312" width="120" height="60" as="geometry" />
        </mxCell>
        <mxCell id="usRqdg-4SsY06XXPIi0Y-7" style="edgeStyle=orthogonalEdgeStyle;rounded=0;orthogonalLoop=1;jettySize=auto;html=1;fontSize=13;" parent="1" source="usRqdg-4SsY06XXPIi0Y-3" target="usRqdg-4SsY06XXPIi0Y-4" edge="1">
          <mxGeometry relative="1" as="geometry" />
        </mxCell>
        <mxCell id="usRqdg-4SsY06XXPIi0Y-3" value="disruption" style="ellipse;whiteSpace=wrap;html=1;fillColor=#d5e8d4;strokeColor=#82b366;fontSize=13;" parent="1" vertex="1">
          <mxGeometry x="397" y="101" width="120" height="80" as="geometry" />
        </mxCell>
        <mxCell id="usRqdg-4SsY06XXPIi0Y-5" style="edgeStyle=orthogonalEdgeStyle;rounded=0;orthogonalLoop=1;jettySize=auto;html=1;fontSize=13;" parent="1" source="usRqdg-4SsY06XXPIi0Y-4" target="usRqdg-4SsY06XXPIi0Y-1" edge="1">
          <mxGeometry relative="1" as="geometry" />
        </mxCell>
        <mxCell id="usRqdg-4SsY06XXPIi0Y-6" style="edgeStyle=orthogonalEdgeStyle;rounded=0;orthogonalLoop=1;jettySize=auto;html=1;fontSize=13;" parent="1" source="usRqdg-4SsY06XXPIi0Y-4" target="usRqdg-4SsY06XXPIi0Y-2" edge="1">
          <mxGeometry relative="1" as="geometry" />
        </mxCell>
        <mxCell id="usRqdg-4SsY06XXPIi0Y-4" value="Asesment Awal" style="rhombus;whiteSpace=wrap;html=1;fontSize=13;fillColor=#f8cecc;strokeColor=#b85450;" parent="1" vertex="1">
          <mxGeometry x="397" y="220" width="118" height="87" as="geometry" />
        </mxCell>
        <mxCell id="kEFBA2uL_NgSPJdPskX8-7" style="edgeStyle=orthogonalEdgeStyle;rounded=0;orthogonalLoop=1;jettySize=auto;html=1;fontSize=13;" edge="1" parent="1" source="usRqdg-4SsY06XXPIi0Y-8" target="kEFBA2uL_NgSPJdPskX8-8">
          <mxGeometry relative="1" as="geometry">
            <mxPoint x="596" y="559" as="targetPoint" />
          </mxGeometry>
        </mxCell>
        <mxCell id="usRqdg-4SsY06XXPIi0Y-8" value="PDN Ticket and Resolve" style="shape=parallelogram;perimeter=parallelogramPerimeter;whiteSpace=wrap;html=1;fixedSize=1;fontSize=13;fillColor=#dae8fc;strokeColor=#6c8ebf;" parent="1" vertex="1">
          <mxGeometry x="528" y="436" width="136" height="104" as="geometry" />
        </mxCell>
        <mxCell id="kEFBA2uL_NgSPJdPskX8-19" style="edgeStyle=orthogonalEdgeStyle;rounded=0;orthogonalLoop=1;jettySize=auto;html=1;fontSize=13;" edge="1" parent="1" source="usRqdg-4SsY06XXPIi0Y-10" target="kEFBA2uL_NgSPJdPskX8-8">
          <mxGeometry relative="1" as="geometry">
            <Array as="points">
              <mxPoint x="511" y="762" />
              <mxPoint x="511" y="762" />
            </Array>
          </mxGeometry>
        </mxCell>
        <mxCell id="usRqdg-4SsY06XXPIi0Y-10" value="ICMS team &amp;nbsp;&lt;br style=&quot;font-size: 13px;&quot;&gt;resolve" style="shape=parallelogram;perimeter=parallelogramPerimeter;whiteSpace=wrap;html=1;fixedSize=1;fontSize=13;fillColor=#f8cecc;strokeColor=#b85450;" parent="1" vertex="1">
          <mxGeometry x="261" y="743" width="120" height="60" as="geometry" />
        </mxCell>
        <mxCell id="kEFBA2uL_NgSPJdPskX8-18" style="edgeStyle=orthogonalEdgeStyle;rounded=0;orthogonalLoop=1;jettySize=auto;html=1;fontSize=13;" edge="1" parent="1" source="kEFBA2uL_NgSPJdPskX8-1" target="kEFBA2uL_NgSPJdPskX8-15">
          <mxGeometry relative="1" as="geometry" />
        </mxCell>
        <mxCell id="kEFBA2uL_NgSPJdPskX8-1" value="source of problem?" style="rhombus;whiteSpace=wrap;html=1;fontSize=13;fillColor=#f8cecc;strokeColor=#b85450;" vertex="1" parent="1">
          <mxGeometry x="278" y="416" width="86" height="91" as="geometry" />
        </mxCell>
        <mxCell id="kEFBA2uL_NgSPJdPskX8-2" value="DB" style="rounded=0;whiteSpace=wrap;html=1;fontSize=13;" vertex="1" parent="1">
          <mxGeometry x="192.5" y="543" width="120" height="60" as="geometry" />
        </mxCell>
        <mxCell id="kEFBA2uL_NgSPJdPskX8-3" value="code" style="rounded=0;whiteSpace=wrap;html=1;fontSize=13;" vertex="1" parent="1">
          <mxGeometry x="327.5" y="545" width="120" height="60" as="geometry" />
        </mxCell>
        <mxCell id="kEFBA2uL_NgSPJdPskX8-4" value="config" style="rounded=0;whiteSpace=wrap;html=1;fontSize=13;" vertex="1" parent="1">
          <mxGeometry x="192.5" y="616" width="120" height="60" as="geometry" />
        </mxCell>
        <mxCell id="kEFBA2uL_NgSPJdPskX8-5" value="FS" style="rounded=0;whiteSpace=wrap;html=1;fontSize=13;" vertex="1" parent="1">
          <mxGeometry x="325.5" y="616" width="120" height="60" as="geometry" />
        </mxCell>
        <mxCell id="kEFBA2uL_NgSPJdPskX8-11" value="yes" style="edgeStyle=orthogonalEdgeStyle;rounded=0;orthogonalLoop=1;jettySize=auto;html=1;fontSize=13;" edge="1" parent="1" source="kEFBA2uL_NgSPJdPskX8-8" target="kEFBA2uL_NgSPJdPskX8-10">
          <mxGeometry relative="1" as="geometry" />
        </mxCell>
        <mxCell id="kEFBA2uL_NgSPJdPskX8-20" value="No" style="edgeStyle=orthogonalEdgeStyle;rounded=0;orthogonalLoop=1;jettySize=auto;html=1;fontSize=13;" edge="1" parent="1" source="kEFBA2uL_NgSPJdPskX8-8">
          <mxGeometry relative="1" as="geometry">
            <mxPoint x="596" y="899" as="targetPoint" />
          </mxGeometry>
        </mxCell>
        <mxCell id="kEFBA2uL_NgSPJdPskX8-8" value="resolution too long?" style="rhombus;whiteSpace=wrap;html=1;fontSize=13;fillColor=#e1d5e7;strokeColor=#9673a6;" vertex="1" parent="1">
          <mxGeometry x="547.5" y="718" width="97" height="98" as="geometry" />
        </mxCell>
        <mxCell id="kEFBA2uL_NgSPJdPskX8-13" style="edgeStyle=orthogonalEdgeStyle;rounded=0;orthogonalLoop=1;jettySize=auto;html=1;fontSize=13;" edge="1" parent="1" source="kEFBA2uL_NgSPJdPskX8-10">
          <mxGeometry relative="1" as="geometry">
            <mxPoint x="656" y="933" as="targetPoint" />
            <Array as="points">
              <mxPoint x="773" y="933" />
            </Array>
          </mxGeometry>
        </mxCell>
        <mxCell id="kEFBA2uL_NgSPJdPskX8-10" value="activate backup server&amp;nbsp;" style="rounded=0;whiteSpace=wrap;html=1;fontSize=13;fillColor=#f8cecc;strokeColor=#b85450;" vertex="1" parent="1">
          <mxGeometry x="713" y="737" width="120" height="60" as="geometry" />
        </mxCell>
        <mxCell id="E0MMG2fBvGBTfRHYkig0-1" value="Flowchart Mitigasi" style="text;html=1;strokeColor=none;fillColor=none;align=center;verticalAlign=middle;whiteSpace=wrap;rounded=0;fontSize=20;fontStyle=1" vertex="1" parent="1">
          <mxGeometry x="340" y="41" width="248" height="30" as="geometry" />
        </mxCell>
        <mxCell id="E0MMG2fBvGBTfRHYkig0-2" value="&lt;span style=&quot;caret-color: rgb(0, 0, 0); color: rgb(0, 0, 0); font-family: Helvetica; font-size: 13px; font-style: normal; font-variant-caps: normal; font-weight: normal; letter-spacing: normal; text-align: center; text-indent: 0px; text-transform: none; word-spacing: 0px; -webkit-text-stroke-width: 0px; background-color: rgb(248, 249, 250); text-decoration: none; float: none; display: inline !important;&quot;&gt;penentuan source penyebab, asesment impact, dan estimasi&lt;/span&gt;" style="text;whiteSpace=wrap;html=1;fontSize=14;" vertex="1" parent="1">
          <mxGeometry x="552" y="158" width="186" height="38" as="geometry" />
        </mxCell>
        <mxCell id="E0MMG2fBvGBTfRHYkig0-3" value="" style="curved=1;endArrow=classic;html=1;rounded=0;fontSize=14;" edge="1" parent="1" source="usRqdg-4SsY06XXPIi0Y-4">
          <mxGeometry width="50" height="50" relative="1" as="geometry">
            <mxPoint x="493" y="231" as="sourcePoint" />
            <mxPoint x="543" y="181" as="targetPoint" />
            <Array as="points">
              <mxPoint x="543" y="231" />
              <mxPoint x="493" y="181" />
            </Array>
          </mxGeometry>
        </mxCell>
        <mxCell id="xhSqdQ1_Ly-qrsT6m0mN-2" value="System Online" style="ellipse;whiteSpace=wrap;html=1;fontSize=14;fillColor=#d5e8d4;strokeColor=#82b366;" vertex="1" parent="1">
          <mxGeometry x="536" y="900" width="120" height="80" as="geometry" />
        </mxCell>
        <mxCell id="xhSqdQ1_Ly-qrsT6m0mN-6" value="&lt;span style=&quot;caret-color: rgb(0, 0, 0); color: rgb(0, 0, 0); font-family: Helvetica; font-size: 13px; font-style: normal; font-variant-caps: normal; font-weight: normal; letter-spacing: normal; text-align: center; text-indent: 0px; text-transform: none; word-spacing: 0px; -webkit-text-stroke-width: 0px; background-color: rgb(248, 249, 250); text-decoration: none; float: none; display: inline !important;&quot;&gt;disepakati dan diapprove oleh BAKTI&lt;/span&gt;" style="text;whiteSpace=wrap;html=1;fontSize=14;" vertex="1" parent="1">
          <mxGeometry x="654" y="620" width="186" height="38" as="geometry" />
        </mxCell>
        <mxCell id="xhSqdQ1_Ly-qrsT6m0mN-9" value="" style="curved=1;endArrow=classic;html=1;rounded=0;fontSize=14;" edge="1" parent="1">
          <mxGeometry width="50" height="50" relative="1" as="geometry">
            <mxPoint x="622.1591546825675" y="743.8715801473168" as="sourcePoint" />
            <mxPoint x="670" y="676" as="targetPoint" />
            <Array as="points">
              <mxPoint x="670" y="726" />
              <mxPoint x="620" y="676" />
            </Array>
          </mxGeometry>
        </mxCell>
      </root>
    </mxGraphModel>
  </diagram>
  <diagram id="a5gDlR-bITtgItZ4mCE3" name="Topologi">
    <mxGraphModel dx="1167" dy="719" grid="1" gridSize="10" guides="1" tooltips="1" connect="1" arrows="1" fold="1" page="1" pageScale="1" pageWidth="850" pageHeight="1100" math="0" shadow="0">
      <root>
        <mxCell id="0" />
        <mxCell id="1" parent="0" />
        <mxCell id="TSCVfamJXVCJuM36eqgs-17" value="" style="rounded=0;whiteSpace=wrap;html=1;fontSize=14;" vertex="1" parent="1">
          <mxGeometry x="460" y="40" width="250" height="400" as="geometry" />
        </mxCell>
        <mxCell id="TSCVfamJXVCJuM36eqgs-16" value="" style="rounded=0;whiteSpace=wrap;html=1;fontSize=14;" vertex="1" parent="1">
          <mxGeometry x="70" y="40" width="390" height="400" as="geometry" />
        </mxCell>
        <mxCell id="TSCVfamJXVCJuM36eqgs-10" style="rounded=0;orthogonalLoop=1;jettySize=auto;html=1;fontSize=14;" edge="1" parent="1" source="TSCVfamJXVCJuM36eqgs-1" target="TSCVfamJXVCJuM36eqgs-2">
          <mxGeometry relative="1" as="geometry" />
        </mxCell>
        <mxCell id="TSCVfamJXVCJuM36eqgs-11" style="edgeStyle=none;rounded=0;orthogonalLoop=1;jettySize=auto;html=1;fontSize=14;" edge="1" parent="1" source="TSCVfamJXVCJuM36eqgs-1" target="TSCVfamJXVCJuM36eqgs-3">
          <mxGeometry relative="1" as="geometry" />
        </mxCell>
        <mxCell id="TSCVfamJXVCJuM36eqgs-12" style="edgeStyle=none;rounded=0;orthogonalLoop=1;jettySize=auto;html=1;fontSize=14;" edge="1" parent="1" source="TSCVfamJXVCJuM36eqgs-1" target="TSCVfamJXVCJuM36eqgs-4">
          <mxGeometry relative="1" as="geometry" />
        </mxCell>
        <mxCell id="TSCVfamJXVCJuM36eqgs-19" style="edgeStyle=none;rounded=0;orthogonalLoop=1;jettySize=auto;html=1;fontSize=14;" edge="1" parent="1" source="TSCVfamJXVCJuM36eqgs-1" target="TSCVfamJXVCJuM36eqgs-15">
          <mxGeometry relative="1" as="geometry" />
        </mxCell>
        <mxCell id="TSCVfamJXVCJuM36eqgs-20" style="edgeStyle=none;rounded=0;orthogonalLoop=1;jettySize=auto;html=1;fontSize=14;" edge="1" parent="1" source="TSCVfamJXVCJuM36eqgs-1" target="TSCVfamJXVCJuM36eqgs-5">
          <mxGeometry relative="1" as="geometry" />
        </mxCell>
        <mxCell id="TSCVfamJXVCJuM36eqgs-21" style="edgeStyle=none;rounded=0;orthogonalLoop=1;jettySize=auto;html=1;fontSize=14;" edge="1" parent="1" source="TSCVfamJXVCJuM36eqgs-1" target="TSCVfamJXVCJuM36eqgs-18">
          <mxGeometry relative="1" as="geometry" />
        </mxCell>
        <mxCell id="TSCVfamJXVCJuM36eqgs-1" value="DMZ-1" style="ellipse;whiteSpace=wrap;html=1;aspect=fixed;fontSize=14;" vertex="1" parent="1">
          <mxGeometry x="235" y="340" width="80" height="80" as="geometry" />
        </mxCell>
        <mxCell id="TSCVfamJXVCJuM36eqgs-2" value="PASTI" style="ellipse;whiteSpace=wrap;html=1;aspect=fixed;fontSize=14;" vertex="1" parent="1">
          <mxGeometry x="110" y="220" width="80" height="80" as="geometry" />
        </mxCell>
        <mxCell id="TSCVfamJXVCJuM36eqgs-3" value="ICMS-01" style="ellipse;whiteSpace=wrap;html=1;aspect=fixed;fontSize=14;" vertex="1" parent="1">
          <mxGeometry x="100" y="50" width="80" height="80" as="geometry" />
        </mxCell>
        <mxCell id="TSCVfamJXVCJuM36eqgs-4" value="PPL" style="ellipse;whiteSpace=wrap;html=1;aspect=fixed;fontSize=14;" vertex="1" parent="1">
          <mxGeometry x="360" y="220" width="80" height="80" as="geometry" />
        </mxCell>
        <mxCell id="TSCVfamJXVCJuM36eqgs-5" value="ICMS-03" style="ellipse;whiteSpace=wrap;html=1;aspect=fixed;fontSize=14;" vertex="1" parent="1">
          <mxGeometry x="280" y="50" width="80" height="80" as="geometry" />
        </mxCell>
        <mxCell id="TSCVfamJXVCJuM36eqgs-13" style="edgeStyle=none;rounded=0;orthogonalLoop=1;jettySize=auto;html=1;fontSize=14;" edge="1" parent="1" source="TSCVfamJXVCJuM36eqgs-6" target="TSCVfamJXVCJuM36eqgs-7">
          <mxGeometry relative="1" as="geometry" />
        </mxCell>
        <mxCell id="TSCVfamJXVCJuM36eqgs-14" style="edgeStyle=none;rounded=0;orthogonalLoop=1;jettySize=auto;html=1;fontSize=14;" edge="1" parent="1" source="TSCVfamJXVCJuM36eqgs-6" target="TSCVfamJXVCJuM36eqgs-8">
          <mxGeometry relative="1" as="geometry" />
        </mxCell>
        <mxCell id="TSCVfamJXVCJuM36eqgs-6" value="DMZ-2" style="ellipse;whiteSpace=wrap;html=1;aspect=fixed;fontSize=14;" vertex="1" parent="1">
          <mxGeometry x="550" y="340" width="80" height="80" as="geometry" />
        </mxCell>
        <mxCell id="TSCVfamJXVCJuM36eqgs-7" value="BIOS" style="ellipse;whiteSpace=wrap;html=1;aspect=fixed;fontSize=14;" vertex="1" parent="1">
          <mxGeometry x="500" y="220" width="80" height="80" as="geometry" />
        </mxCell>
        <mxCell id="TSCVfamJXVCJuM36eqgs-8" value="PEN" style="ellipse;whiteSpace=wrap;html=1;aspect=fixed;fontSize=14;" vertex="1" parent="1">
          <mxGeometry x="590" y="220" width="80" height="80" as="geometry" />
        </mxCell>
        <mxCell id="TSCVfamJXVCJuM36eqgs-15" value="ICMS-02" style="ellipse;whiteSpace=wrap;html=1;aspect=fixed;fontSize=14;" vertex="1" parent="1">
          <mxGeometry x="190" y="50" width="80" height="80" as="geometry" />
        </mxCell>
        <mxCell id="TSCVfamJXVCJuM36eqgs-18" value="ICMS-04" style="ellipse;whiteSpace=wrap;html=1;aspect=fixed;fontSize=14;" vertex="1" parent="1">
          <mxGeometry x="370" y="50" width="80" height="80" as="geometry" />
        </mxCell>
        <mxCell id="TSCVfamJXVCJuM36eqgs-23" style="edgeStyle=none;rounded=0;orthogonalLoop=1;jettySize=auto;html=1;fontSize=14;" edge="1" parent="1" source="TSCVfamJXVCJuM36eqgs-22" target="TSCVfamJXVCJuM36eqgs-1">
          <mxGeometry relative="1" as="geometry" />
        </mxCell>
        <mxCell id="TSCVfamJXVCJuM36eqgs-24" style="edgeStyle=none;rounded=0;orthogonalLoop=1;jettySize=auto;html=1;fontSize=14;" edge="1" parent="1" source="TSCVfamJXVCJuM36eqgs-22" target="TSCVfamJXVCJuM36eqgs-6">
          <mxGeometry relative="1" as="geometry" />
        </mxCell>
        <mxCell id="TSCVfamJXVCJuM36eqgs-22" value="Internet" style="ellipse;shape=cloud;whiteSpace=wrap;html=1;fontSize=14;" vertex="1" parent="1">
          <mxGeometry x="380" y="480" width="120" height="80" as="geometry" />
        </mxCell>
        <mxCell id="7hxldKIkH68mI3BJK8g6-1" value="&lt;p style=&quot;margin: 0.0px 0.0px 0.0px 0.0px; font: 11.0px Menlo; color: #000000&quot;&gt;&lt;span style=&quot;font-variant-ligatures: no-common-ligatures&quot;&gt;103.170.105.220&lt;/span&gt;&lt;/p&gt;" style="text;whiteSpace=wrap;html=1;fontSize=14;" vertex="1" parent="1">
          <mxGeometry x="75" y="410" width="130" height="30" as="geometry" />
        </mxCell>
      </root>
    </mxGraphModel>
  </diagram>
</mxfile>
